<svg width="17" height="20" viewBox="0 0 17 20" fill="none" xmlns="http://www.w3.org/2000/svg">
<path d="M2.08333 11.4583C2.08333 12.3611 2.26562 13.2161 2.6302 14.0234C2.99478 14.8307 3.51562 15.5382 4.1927 16.1458C4.17534 16.059 4.16666 15.9809 4.16666 15.9114C4.16666 15.842 4.16666 15.7638 4.16666 15.677C4.16666 15.1215 4.27082 14.6007 4.47916 14.1145C4.68749 13.6284 4.99131 13.1857 5.39061 12.7864L8.33331 9.89581L11.276 12.7864C11.6753 13.1857 11.9791 13.6284 12.1875 14.1145C12.3958 14.6007 12.5 15.1215 12.5 15.677C12.5 15.7638 12.5 15.842 12.5 15.9114C12.5 15.9809 12.4913 16.059 12.4739 16.1458C13.151 15.5382 13.6718 14.8307 14.0364 14.0234C14.401 13.2161 14.5833 12.3611 14.5833 11.4583C14.5833 10.5903 14.4227 9.76994 14.1015 8.99737C13.7803 8.22481 13.3159 7.5347 12.7083 6.92707C12.3611 7.15276 11.9965 7.32203 11.6146 7.43488C11.2326 7.54772 10.842 7.60415 10.4427 7.60415C9.3663 7.60415 8.43314 7.24825 7.64321 6.53644C6.85328 5.82464 6.39755 4.9479 6.27603 3.90624C5.59894 4.47916 4.99999 5.07377 4.47916 5.69009C3.95832 6.30641 3.51996 6.93141 3.16405 7.56509C2.80815 8.19876 2.53906 8.84546 2.35676 9.50518C2.17447 10.1649 2.08333 10.8159 2.08333 11.4583ZM8.33331 12.8125L6.84894 14.2708C6.65797 14.4618 6.5104 14.6788 6.40623 14.9218C6.30207 15.1649 6.24998 15.4166 6.24998 15.677C6.24998 16.2326 6.45398 16.71 6.86196 17.1093C7.26995 17.5086 7.7604 17.7083 8.33331 17.7083C8.90623 17.7083 9.39668 17.5086 9.80466 17.1093C10.2126 16.71 10.4166 16.2326 10.4166 15.677C10.4166 15.3993 10.3646 15.1432 10.2604 14.9088C10.1562 14.6744 10.0087 14.4618 9.81768 14.2708L8.33331 12.8125ZM8.33331 0V3.43749C8.33331 4.02777 8.53731 4.52256 8.94529 4.92186C9.35328 5.32117 9.85241 5.52082 10.4427 5.52082C10.7552 5.52082 11.046 5.45572 11.3151 5.32551C11.5842 5.1953 11.8229 4.99999 12.0312 4.73957L12.5 4.16666C13.7847 4.89582 14.8003 5.91144 15.5468 7.21352C16.2934 8.5156 16.6666 9.93053 16.6666 11.4583C16.6666 13.7847 15.8593 15.7552 14.2448 17.3697C12.6302 18.9843 10.6597 19.7916 8.33331 19.7916C6.00693 19.7916 4.03645 18.9843 2.42187 17.3697C0.80729 15.7552 0 13.7847 0 11.4583C0 9.21873 0.750866 7.092 2.2526 5.07811C3.75433 3.06423 5.78124 1.37152 8.33331 0Z" fill="#274182"/>
</svg>
