<svg width="40" height="32" viewBox="0 0 40 32" fill="none" xmlns="http://www.w3.org/2000/svg">
<path d="M25.5 25H28.5V22H30C30.5667 22 31.0417 21.8083 31.425 21.425C31.8083 21.0417 32 20.5667 32 20V12C32 11.4333 31.8083 10.9583 31.425 10.575C31.0417 10.1917 30.5667 10 30 10H24C23.4333 10 22.9583 10.1917 22.575 10.575C22.1917 10.9583 22 11.4333 22 12V20C22 20.5667 22.1917 21.0417 22.575 21.425C22.9583 21.8083 23.4333 22 24 22H25.5V25V25M8 22H11V18H15V22H18V10H15V15H11V10H8V22V22M25 19V19V19V13V13V13H29V13V13V19V19V19H25V19M4 32C2.9 32 1.95833 31.6083 1.175 30.825C0.391667 30.0417 0 29.1 0 28V4C0 2.9 0.391667 1.95833 1.175 1.175C1.95833 0.391667 2.9 0 4 0H36C37.1 0 38.0417 0.391667 38.825 1.175C39.6083 1.95833 40 2.9 40 4V28C40 29.1 39.6083 30.0417 38.825 30.825C38.0417 31.6083 37.1 32 36 32H4V32M4 28H36V28V28V4V4V4H4V4V4V28V28V28V28M4 28V28V28V4V4V4V4V4V4V28V28V28V28V28" fill="white"/>
</svg>
