<svg width="22" height="21" viewBox="0 0 22 21" fill="none" xmlns="http://www.w3.org/2000/svg">
<path d="M16.7998 7.05239L15.6916 4.63443L13.2736 3.5262L15.6916 2.41796L16.7998 0L17.908 2.41796L20.326 3.5262L17.908 4.63443L16.7998 7.05239ZM18.8148 14.1048L18.0088 12.3921L16.2961 11.5861L18.0088 10.7801L18.8148 9.06736L19.6208 10.7801L21.3335 11.5861L19.6208 12.3921L18.8148 14.1048ZM5.71748 20.1497L5.41523 17.7821C5.29769 17.7317 5.17176 17.6646 5.03743 17.5806C4.90309 17.4967 4.79395 17.4127 4.70999 17.3287L2.49353 18.2859L0 13.9033L1.88903 12.4928C1.88903 12.3585 1.88903 12.2242 1.88903 12.0898C1.88903 11.9555 1.88903 11.8212 1.88903 11.6868L0 10.2763L2.49353 5.89379L4.70999 6.8509C4.79395 6.76694 4.90309 6.68298 5.03743 6.59903C5.17176 6.51507 5.29769 6.4479 5.41523 6.39753L5.71748 4.02994H10.7549L11.0571 6.39753C11.1747 6.4479 11.3006 6.51507 11.435 6.59903C11.5693 6.68298 11.6784 6.76694 11.7624 6.8509L13.9789 5.89379L16.4724 10.2763L14.5833 11.6868C14.5833 11.8212 14.5833 11.9555 14.5833 12.0898C14.5833 12.2242 14.5833 12.3585 14.5833 12.4928L16.4724 13.9033L13.9789 18.2859L11.7624 17.3287C11.6784 17.4127 11.5693 17.4967 11.435 17.5806C11.3006 17.6646 11.1747 17.7317 11.0571 17.7821L10.7549 20.1497H5.71748ZM8.23619 15.1123C9.07576 15.1123 9.7894 14.8184 10.3771 14.2307C10.9648 13.643 11.2586 12.9294 11.2586 12.0898C11.2586 11.2502 10.9648 10.5366 10.3771 9.94891C9.7894 9.36121 9.07576 9.06736 8.23619 9.06736C7.39662 9.06736 6.68298 9.36121 6.09528 9.94891C5.50759 10.5366 5.21374 11.2502 5.21374 12.0898C5.21374 12.9294 5.50759 13.643 6.09528 14.2307C6.68298 14.8184 7.39662 15.1123 8.23619 15.1123ZM7.48058 18.1347H8.9918L9.1933 16.3213C9.68025 16.1869 10.0958 16.0148 10.4401 15.8049C10.7843 15.595 11.1243 15.3138 11.4601 14.9612L13.1225 15.7168L13.8277 14.4574L12.3669 13.3492C12.5012 12.963 12.5684 12.5432 12.5684 12.0898C12.5684 11.6365 12.5012 11.2167 12.3669 10.8305L13.8277 9.72223L13.1225 8.46287L11.4601 9.21849C11.1243 8.86587 10.7843 8.58461 10.4401 8.37472C10.0958 8.16483 9.68025 7.99271 9.1933 7.85838L8.9918 6.04491H7.48058L7.27908 7.85838C6.79213 7.99271 6.37654 8.16483 6.03232 8.37472C5.68809 8.58461 5.34807 8.86587 5.01224 9.21849L3.34989 8.46287L2.64465 9.72223L4.1055 10.8305C3.97117 11.2167 3.89981 11.6365 3.89141 12.0898C3.88302 12.5432 3.95438 12.963 4.1055 13.3492L2.64465 14.4574L3.34989 15.7168L5.01224 14.9612C5.34807 15.3138 5.68809 15.595 6.03232 15.8049C6.37654 16.0148 6.79213 16.1869 7.27908 16.3213L7.48058 18.1347Z" fill="#274182"/>
</svg>
