<svg width="21" height="20" viewBox="0 0 21 20" fill="none" xmlns="http://www.w3.org/2000/svg">
<path d="M9.79687 13.5308L9.62109 17.79L9.59766 18.0446L4.67578 17.709C4.39453 17.6859 4.13281 17.5643 3.89062 17.3444C3.64844 17.1245 3.46484 16.8718 3.33984 16.5863C3.25391 16.378 3.19727 16.1658 3.16992 15.9497C3.14258 15.7337 3.1582 15.4829 3.2168 15.1974C3.27539 14.9119 3.32227 14.6997 3.35742 14.5609C3.39258 14.422 3.47656 14.175 3.60937 13.8201C3.74219 13.4652 3.81641 13.2607 3.83203 13.2067C4.44141 13.2993 6.42969 13.4073 9.79687 13.5308ZM5.26172 6.74835L7.37109 11.1349L5.64844 10.0701C5.15625 10.6257 4.7207 11.1832 4.3418 11.7426C3.96289 12.302 3.67969 12.7842 3.49219 13.1893C3.30469 13.5944 3.15039 13.959 3.0293 14.2831C2.9082 14.6071 2.83594 14.8502 2.8125 15.0122L2.76562 15.2553L0.539062 11.1234C0.40625 10.9227 0.335937 10.7067 0.328125 10.4752C0.320312 10.2437 0.34375 10.0624 0.398437 9.93122L0.492187 9.72289C0.765625 9.23678 1.21094 8.51147 1.82812 7.54696L0.1875 6.55159L5.26172 6.74835ZM19.6875 12.7321L17.4844 16.8872C17.3906 17.111 17.248 17.2904 17.0566 17.4254C16.8652 17.5605 16.6953 17.6396 16.5469 17.6627L16.3359 17.709C15.7812 17.763 14.9258 17.8093 13.7695 17.8479L13.8633 19.746L11.168 15.4984L13.6406 11.3085L13.7227 13.3109C15.0508 13.4343 16.1562 13.4536 17.0391 13.3687C17.9219 13.2838 18.5859 13.1565 19.0312 12.9868L19.6875 12.7321ZM10.4883 2.0377C10.1211 2.52382 9.08594 4.20206 7.38281 7.07243L3.66797 4.90807L3.44531 4.76919L6.08203 0.648815C6.23828 0.409618 6.47266 0.236007 6.78516 0.127982C7.09766 0.0199572 7.41016 -0.018623 7.72266 0.0122412C7.91016 0.0276733 8.09961 0.0739696 8.29101 0.15113C8.48242 0.228291 8.64648 0.309309 8.7832 0.394186C8.91992 0.479062 9.08203 0.606377 9.26953 0.77613C9.45703 0.945883 9.59766 1.07898 9.69141 1.17544C9.78516 1.27189 9.92578 1.42428 10.1133 1.63261C10.3008 1.84094 10.4258 1.97598 10.4883 2.0377ZM18.1641 5.59094L20.6484 9.79233C20.7891 10.0778 20.8379 10.371 20.7949 10.672C20.752 10.9729 20.6445 11.2584 20.4727 11.5284C20.3711 11.6828 20.2422 11.8255 20.0859 11.9567C19.9297 12.0879 19.7812 12.1959 19.6406 12.2808C19.5 12.3656 19.3105 12.4505 19.0723 12.5354C18.834 12.6203 18.6504 12.682 18.5215 12.7206C18.3926 12.7592 18.1914 12.8132 17.918 12.8826C17.6445 12.9521 17.4648 12.9984 17.3789 13.0215C17.1133 12.4659 16.0781 10.7838 14.2734 7.9752L17.9414 5.71826L18.1641 5.59094ZM16.4883 2.9752L18.1523 2.01456L15.5742 6.33169L10.6641 6.1002L12.4336 5.10483C12.168 4.41811 11.875 3.77767 11.5547 3.18354C11.2344 2.5894 10.9395 2.11294 10.6699 1.75414C10.4004 1.39534 10.1484 1.0867 9.91406 0.828213C9.67969 0.569726 9.49609 0.390328 9.36328 0.290019L9.16406 0.139556L13.9102 0.15113C14.1523 0.127982 14.3789 0.168491 14.5898 0.272658C14.8008 0.376825 14.9531 0.486778 15.0469 0.602519L15.1758 0.77613C15.4805 1.24681 15.918 1.97983 16.4883 2.9752Z" fill="#274182"/>
</svg>
